<svg xmlns="http://www.w3.org/2000/svg" width="800" height="180" viewBox="0 0 800 180" role="img" aria-label="Christopher Marshall, Senior Technical Writer, Berlin">
  <text x="0" y="40" font-family="ui-monospace, SFMono-Regular, Menlo, Consolas, monospace" font-size="17" fill="#4ade80">docs-as-code + data</text>
  <text x="0" y="98" font-family="-apple-system, BlinkMacSystemFont, 'Segoe UI', Helvetica, Arial, sans-serif" font-size="46" font-weight="700" fill="#f0f6fc">Christopher Marshall</text>
  <text x="0" y="138" font-family="-apple-system, BlinkMacSystemFont, 'Segoe UI', Helvetica, Arial, sans-serif" font-size="24" fill="#9198a1">Senior Technical Writer · Berlin</text>

  <!-- page-freshness heatmap -->
  <rect x="660" y="29" width="14" height="14" rx="3" fill="#1b2420"/><rect x="678" y="29" width="14" height="14" rx="3" fill="#14532d"/><rect x="696" y="29" width="14" height="14" rx="3" fill="#14532d"/><rect x="714" y="29" width="14" height="14" rx="3" fill="#14532d"/><rect x="732" y="29" width="14" height="14" rx="3" fill="#14532d"/><rect x="750" y="29" width="14" height="14" rx="3" fill="#1a7f43"/><rect x="768" y="29" width="14" height="14" rx="3" fill="#4ade80"/><rect x="786" y="29" width="14" height="14" rx="3" fill="#4ade80"/><rect x="660" y="47" width="14" height="14" rx="3" fill="#14532d"/><rect x="678" y="47" width="14" height="14" rx="3" fill="#14532d"/><rect x="696" y="47" width="14" height="14" rx="3" fill="#14532d"/><rect x="714" y="47" width="14" height="14" rx="3" fill="#1a7f43"/><rect x="732" y="47" width="14" height="14" rx="3" fill="#1b2420"/><rect x="750" y="47" width="14" height="14" rx="3" fill="#2fb563"/><rect x="768" y="47" width="14" height="14" rx="3" fill="#2fb563"/><rect x="786" y="47" width="14" height="14" rx="3" fill="#4ade80"/><rect x="660" y="65" width="14" height="14" rx="3" fill="#1b2420"/><rect x="678" y="65" width="14" height="14" rx="3" fill="#1b2420"/><rect x="696" y="65" width="14" height="14" rx="3" fill="#1b2420"/><rect x="714" y="65" width="14" height="14" rx="3" fill="#14532d"/><rect x="732" y="65" width="14" height="14" rx="3" fill="#1a7f43"/><rect x="750" y="65" width="14" height="14" rx="3" fill="#1a7f43"/><rect x="768" y="65" width="14" height="14" rx="3" fill="#2fb563"/><rect x="786" y="65" width="14" height="14" rx="3" fill="#2fb563"/><rect x="660" y="83" width="14" height="14" rx="3" fill="#1b2420"/><rect x="678" y="83" width="14" height="14" rx="3" fill="#14532d"/><rect x="696" y="83" width="14" height="14" rx="3" fill="#1b2420"/><rect x="714" y="83" width="14" height="14" rx="3" fill="#2fb563"/><rect x="732" y="83" width="14" height="14" rx="3" fill="#2fb563"/><rect x="750" y="83" width="14" height="14" rx="3" fill="#4ade80"/><rect x="768" y="83" width="14" height="14" rx="3" fill="#1a7f43"/><rect x="786" y="83" width="14" height="14" rx="3" fill="#1a7f43"/><rect x="660" y="101" width="14" height="14" rx="3" fill="#1b2420"/><rect x="678" y="101" width="14" height="14" rx="3" fill="#1b2420"/><rect x="696" y="101" width="14" height="14" rx="3" fill="#1a7f43"/><rect x="714" y="101" width="14" height="14" rx="3" fill="#1a7f43"/><rect x="732" y="101" width="14" height="14" rx="3" fill="#14532d"/><rect x="750" y="101" width="14" height="14" rx="3" fill="#14532d"/><rect x="768" y="101" width="14" height="14" rx="3" fill="#1a7f43"/><rect x="786" y="101" width="14" height="14" rx="3" fill="#4ade80"/><rect x="660" y="119" width="14" height="14" rx="3" fill="#1b2420"/><rect x="678" y="119" width="14" height="14" rx="3" fill="#14532d"/><rect x="696" y="119" width="14" height="14" rx="3" fill="#14532d"/><rect x="714" y="119" width="14" height="14" rx="3" fill="#1b2420"/><rect x="732" y="119" width="14" height="14" rx="3" fill="#1a7f43"/><rect x="750" y="119" width="14" height="14" rx="3" fill="#4ade80"/><rect x="768" y="119" width="14" height="14" rx="3" fill="#14532d"/><rect x="786" y="119" width="14" height="14" rx="3" fill="#2fb563"/><rect x="660" y="137" width="14" height="14" rx="3" fill="#1b2420"/><rect x="678" y="137" width="14" height="14" rx="3" fill="#1b2420"/><rect x="696" y="137" width="14" height="14" rx="3" fill="#1a7f43"/><rect x="714" y="137" width="14" height="14" rx="3" fill="#14532d"/><rect x="732" y="137" width="14" height="14" rx="3" fill="#1b2420"/><rect x="750" y="137" width="14" height="14" rx="3" fill="#2fb563"/><rect x="768" y="137" width="14" height="14" rx="3" fill="#4ade80"/><rect x="786" y="137" width="14" height="14" rx="3" fill="#4ade80"/>
</svg>
